<mxfile host="app.diagrams.net" modified="2021-05-21T08:32:21.401Z" agent="5.0 (Macintosh)" etag="Mr9rkPsrI8ijvnfWeDiY" version="14.6.11" type="github">
  <diagram name="Page-1" id="c4acf3e9-155e-7222-9cf6-157b1a14988f">
    <mxGraphModel dx="2583" dy="953" grid="1" gridSize="10" guides="1" tooltips="1" connect="1" arrows="1" fold="1" page="1" pageScale="1" pageWidth="850" pageHeight="1100" background="#ffffff" math="0" shadow="0">
      <root>
        <mxCell id="0" />
        <mxCell id="1" parent="0" />
        <mxCell id="g2LY1XMopfXSmblv1A1d-32" value="" style="rounded=0;whiteSpace=wrap;html=1;align=center;" vertex="1" parent="1">
          <mxGeometry x="-490" y="550" width="1290" height="300" as="geometry" />
        </mxCell>
        <mxCell id="yhg7PZUZ458GV-zq5LN9-21" value="&lt;font style=&quot;font-size: 14px&quot;&gt;*&lt;/font&gt;" style="edgeLabel;resizable=0;html=1;align=left;verticalAlign=bottom;" parent="1" connectable="0" vertex="1">
          <mxGeometry x="370" y="324" as="geometry">
            <mxPoint x="15" y="-87" as="offset" />
          </mxGeometry>
        </mxCell>
        <mxCell id="a-3xQabaQIuShYP5bTJc-108" value="&lt;font style=&quot;font-size: 14px&quot;&gt;*&lt;/font&gt;" style="edgeLabel;resizable=0;html=1;align=left;verticalAlign=bottom;" parent="1" connectable="0" vertex="1">
          <mxGeometry x="370" y="220" as="geometry">
            <mxPoint x="12" y="-23" as="offset" />
          </mxGeometry>
        </mxCell>
        <mxCell id="a-3xQabaQIuShYP5bTJc-105" value="&lt;font style=&quot;font-size: 14px&quot;&gt;*&lt;/font&gt;" style="edgeLabel;resizable=0;html=1;align=left;verticalAlign=bottom;" parent="1" connectable="0" vertex="1">
          <mxGeometry x="-161" y="324" as="geometry">
            <mxPoint x="15" y="-87" as="offset" />
          </mxGeometry>
        </mxCell>
        <mxCell id="17acba5748e5396b-1" value="&lt;b&gt;&lt;font style=&quot;font-size: 12px&quot;&gt;Metamodel&lt;/font&gt;&lt;/b&gt;" style="shape=umlFrame;whiteSpace=wrap;html=1;rounded=0;shadow=0;comic=0;labelBackgroundColor=none;strokeWidth=1;fontFamily=Verdana;fontSize=10;align=center;width=90;height=30;" parent="1" vertex="1">
          <mxGeometry x="-490" y="30" width="1290" height="260" as="geometry" />
        </mxCell>
        <mxCell id="EUPt2hbITshMY0ZR5973-1" value="&lt;font style=&quot;font-size: 12px&quot;&gt;&lt;b&gt;ModelingElement&lt;/b&gt;&lt;/font&gt;" style="swimlane;html=1;fontStyle=0;childLayout=stackLayout;horizontal=1;startSize=26;fillColor=#f5f5f5;horizontalStack=0;resizeParent=1;resizeLast=0;collapsible=1;marginBottom=0;swimlaneFillColor=#ffffff;rounded=0;shadow=0;comic=0;labelBackgroundColor=none;strokeWidth=1;fontFamily=Verdana;fontSize=10;align=center;strokeColor=#666666;fontColor=#333333;" parent="1" vertex="1">
          <mxGeometry x="87" y="50" width="130" height="50" as="geometry" />
        </mxCell>
        <mxCell id="EUPt2hbITshMY0ZR5973-5" value="&lt;font style=&quot;font-size: 12px&quot;&gt;&lt;b&gt;Type&lt;/b&gt;&lt;/font&gt;" style="swimlane;html=1;fontStyle=0;childLayout=stackLayout;horizontal=1;startSize=26;fillColor=#f5f5f5;horizontalStack=0;resizeParent=1;resizeLast=0;collapsible=1;marginBottom=0;swimlaneFillColor=#ffffff;rounded=0;shadow=0;comic=0;labelBackgroundColor=none;strokeWidth=1;fontFamily=Verdana;fontSize=10;align=center;strokeColor=#666666;fontColor=#333333;" parent="1" vertex="1">
          <mxGeometry x="-172.5" y="140" width="110" height="50" as="geometry" />
        </mxCell>
        <mxCell id="a-3xQabaQIuShYP5bTJc-1" value="&lt;font style=&quot;font-size: 12px&quot;&gt;&lt;b&gt;Instance&lt;/b&gt;&lt;/font&gt;" style="swimlane;html=1;fontStyle=0;childLayout=stackLayout;horizontal=1;startSize=26;fillColor=#f5f5f5;horizontalStack=0;resizeParent=1;resizeLast=0;collapsible=1;marginBottom=0;swimlaneFillColor=#ffffff;rounded=0;shadow=0;comic=0;labelBackgroundColor=none;strokeWidth=1;fontFamily=Verdana;fontSize=10;align=center;strokeColor=#666666;fontColor=#333333;" parent="1" vertex="1">
          <mxGeometry x="331.5" y="140" width="115" height="50" as="geometry" />
        </mxCell>
        <mxCell id="a-3xQabaQIuShYP5bTJc-2" value="&lt;div style=&quot;font-size: 12px&quot;&gt;&lt;font style=&quot;font-size: 12px&quot;&gt;&lt;b&gt;MultiInstance&lt;/b&gt;&lt;/font&gt;&lt;/div&gt;" style="swimlane;html=1;fontStyle=0;childLayout=stackLayout;horizontal=1;startSize=26;fillColor=#f5f5f5;horizontalStack=0;resizeParent=1;resizeLast=0;collapsible=1;marginBottom=0;swimlaneFillColor=#ffffff;rounded=0;shadow=0;comic=0;labelBackgroundColor=none;strokeWidth=1;fontFamily=Verdana;fontSize=10;align=center;strokeColor=#666666;fontColor=#333333;" parent="1" vertex="1">
          <mxGeometry x="549.75" y="140" width="110" height="50" as="geometry" />
        </mxCell>
        <mxCell id="a-3xQabaQIuShYP5bTJc-9" value="" style="endArrow=block;endSize=12;endFill=0;html=1;exitX=0.5;exitY=0;exitDx=0;exitDy=0;rounded=0;" parent="1" source="EUPt2hbITshMY0ZR5973-5" target="EUPt2hbITshMY0ZR5973-1" edge="1">
          <mxGeometry width="160" relative="1" as="geometry">
            <mxPoint x="-28.5" y="220" as="sourcePoint" />
            <mxPoint x="151.5" y="98" as="targetPoint" />
            <Array as="points">
              <mxPoint x="-117" y="130" />
              <mxPoint x="151.5" y="130" />
            </Array>
          </mxGeometry>
        </mxCell>
        <mxCell id="a-3xQabaQIuShYP5bTJc-10" value="" style="endArrow=block;endSize=12;endFill=0;html=1;exitX=0.5;exitY=0;exitDx=0;exitDy=0;rounded=0;" parent="1" source="a-3xQabaQIuShYP5bTJc-1" target="EUPt2hbITshMY0ZR5973-1" edge="1">
          <mxGeometry width="160" relative="1" as="geometry">
            <mxPoint x="31.5" y="160" as="sourcePoint" />
            <mxPoint x="196.5" y="100" as="targetPoint" />
            <Array as="points">
              <mxPoint x="389" y="130" />
              <mxPoint x="196.5" y="130" />
            </Array>
          </mxGeometry>
        </mxCell>
        <mxCell id="a-3xQabaQIuShYP5bTJc-13" value="" style="endArrow=block;endSize=12;endFill=0;html=1;rounded=0;" parent="1" source="a-3xQabaQIuShYP5bTJc-2" target="EUPt2hbITshMY0ZR5973-1" edge="1">
          <mxGeometry width="160" relative="1" as="geometry">
            <mxPoint x="336.5" y="80" as="sourcePoint" />
            <mxPoint x="496.5" y="80" as="targetPoint" />
            <Array as="points">
              <mxPoint x="603.5" y="130" />
              <mxPoint x="196.5" y="130" />
            </Array>
          </mxGeometry>
        </mxCell>
        <mxCell id="a-3xQabaQIuShYP5bTJc-27" value="&lt;font style=&quot;font-size: 12px&quot;&gt;&lt;b&gt;ProcessType&lt;/b&gt;&lt;/font&gt;" style="swimlane;html=1;fontStyle=0;childLayout=stackLayout;horizontal=1;startSize=26;fillColor=#f5f5f5;horizontalStack=0;resizeParent=1;resizeLast=0;collapsible=1;marginBottom=0;swimlaneFillColor=#ffffff;rounded=0;shadow=0;comic=0;labelBackgroundColor=none;strokeWidth=1;fontFamily=Verdana;fontSize=10;align=center;strokeColor=#666666;fontColor=#333333;" parent="1" vertex="1">
          <mxGeometry x="-281" y="220" width="116" height="50" as="geometry" />
        </mxCell>
        <mxCell id="a-3xQabaQIuShYP5bTJc-29" value="" style="endArrow=block;endSize=12;endFill=0;html=1;rounded=0;exitX=0.5;exitY=0;exitDx=0;exitDy=0;entryX=0.5;entryY=1;entryDx=0;entryDy=0;" parent="1" source="a-3xQabaQIuShYP5bTJc-27" target="EUPt2hbITshMY0ZR5973-5" edge="1">
          <mxGeometry width="160" relative="1" as="geometry">
            <mxPoint x="71.5" y="260" as="sourcePoint" />
            <mxPoint x="16.5" y="190" as="targetPoint" />
          </mxGeometry>
        </mxCell>
        <mxCell id="a-3xQabaQIuShYP5bTJc-30" value="&lt;font style=&quot;font-size: 12px&quot;&gt;&lt;b&gt;TaskType&lt;/b&gt;&lt;/font&gt;" style="swimlane;html=1;fontStyle=0;childLayout=stackLayout;horizontal=1;startSize=26;fillColor=#f5f5f5;horizontalStack=0;resizeParent=1;resizeLast=0;collapsible=1;marginBottom=0;swimlaneFillColor=#ffffff;rounded=0;shadow=0;comic=0;labelBackgroundColor=none;strokeWidth=1;fontFamily=Verdana;fontSize=10;align=center;strokeColor=#666666;fontColor=#333333;" parent="1" vertex="1">
          <mxGeometry x="-133.5" y="220" width="125.75" height="50" as="geometry" />
        </mxCell>
        <mxCell id="a-3xQabaQIuShYP5bTJc-31" value="" style="endArrow=block;endSize=12;endFill=0;html=1;rounded=0;entryX=0.5;entryY=1;entryDx=0;entryDy=0;" parent="1" source="a-3xQabaQIuShYP5bTJc-30" target="EUPt2hbITshMY0ZR5973-5" edge="1">
          <mxGeometry width="160" relative="1" as="geometry">
            <mxPoint x="200.5" y="412" as="sourcePoint" />
            <mxPoint x="16.5" y="190" as="targetPoint" />
          </mxGeometry>
        </mxCell>
        <mxCell id="a-3xQabaQIuShYP5bTJc-37" value="&lt;font style=&quot;font-size: 12px&quot;&gt;&lt;b&gt;ActorType&lt;/b&gt;&lt;/font&gt;" style="swimlane;html=1;fontStyle=0;childLayout=stackLayout;horizontal=1;startSize=26;fillColor=#f5f5f5;horizontalStack=0;resizeParent=1;resizeLast=0;collapsible=1;marginBottom=0;swimlaneFillColor=#ffffff;rounded=0;shadow=0;comic=0;labelBackgroundColor=none;strokeWidth=1;fontFamily=Verdana;fontSize=10;align=center;strokeColor=#666666;fontColor=#333333;" parent="1" vertex="1">
          <mxGeometry x="-431" y="220" width="126" height="50" as="geometry">
            <mxRectangle x="154" y="368" width="90" height="26" as="alternateBounds" />
          </mxGeometry>
        </mxCell>
        <mxCell id="a-3xQabaQIuShYP5bTJc-38" value="&lt;div style=&quot;font-size: 12px&quot;&gt;&lt;font style=&quot;font-size: 12px&quot;&gt;&lt;b&gt;ArtifactType&lt;/b&gt;&lt;/font&gt;&lt;/div&gt;" style="swimlane;html=1;fontStyle=0;childLayout=stackLayout;horizontal=1;startSize=26;fillColor=#f5f5f5;horizontalStack=0;resizeParent=1;resizeLast=0;collapsible=1;marginBottom=0;swimlaneFillColor=#ffffff;rounded=0;shadow=0;comic=0;labelBackgroundColor=none;strokeWidth=1;fontFamily=Verdana;fontSize=10;align=center;strokeColor=#666666;fontColor=#333333;" parent="1" vertex="1">
          <mxGeometry x="37" y="220" width="110" height="50" as="geometry" />
        </mxCell>
        <mxCell id="a-3xQabaQIuShYP5bTJc-40" value="" style="endArrow=block;endSize=12;endFill=0;html=1;rounded=0;exitX=0.5;exitY=0;exitDx=0;exitDy=0;entryX=0.5;entryY=1;entryDx=0;entryDy=0;" parent="1" source="a-3xQabaQIuShYP5bTJc-37" target="EUPt2hbITshMY0ZR5973-5" edge="1">
          <mxGeometry width="160" relative="1" as="geometry">
            <mxPoint x="-272.5" y="315" as="sourcePoint" />
            <mxPoint x="-462" y="190" as="targetPoint" />
          </mxGeometry>
        </mxCell>
        <mxCell id="a-3xQabaQIuShYP5bTJc-41" value="" style="endArrow=block;endSize=12;endFill=0;html=1;rounded=0;exitX=0.5;exitY=0;exitDx=0;exitDy=0;entryX=0.5;entryY=1;entryDx=0;entryDy=0;" parent="1" source="a-3xQabaQIuShYP5bTJc-38" target="EUPt2hbITshMY0ZR5973-5" edge="1">
          <mxGeometry width="160" relative="1" as="geometry">
            <mxPoint x="464" y="378" as="sourcePoint" />
            <mxPoint x="215" y="186.66037735849056" as="targetPoint" />
          </mxGeometry>
        </mxCell>
        <mxCell id="a-3xQabaQIuShYP5bTJc-46" value="&lt;font style=&quot;font-size: 12px&quot;&gt;&lt;b&gt;Process&lt;/b&gt;&lt;/font&gt;" style="swimlane;html=1;fontStyle=0;childLayout=stackLayout;horizontal=1;startSize=26;fillColor=#f5f5f5;horizontalStack=0;resizeParent=1;resizeLast=0;collapsible=1;marginBottom=0;swimlaneFillColor=#ffffff;rounded=0;shadow=0;comic=0;labelBackgroundColor=none;strokeWidth=1;fontFamily=Verdana;fontSize=10;align=center;strokeColor=#666666;fontColor=#333333;" parent="1" vertex="1">
          <mxGeometry x="256.5" y="220" width="114" height="50" as="geometry" />
        </mxCell>
        <mxCell id="a-3xQabaQIuShYP5bTJc-49" value="&lt;font style=&quot;font-size: 12px&quot;&gt;&lt;b&gt;Task&lt;/b&gt;&lt;/font&gt;" style="swimlane;html=1;fontStyle=0;childLayout=stackLayout;horizontal=1;startSize=26;fillColor=#f5f5f5;horizontalStack=0;resizeParent=1;resizeLast=0;collapsible=1;marginBottom=0;swimlaneFillColor=#ffffff;rounded=0;shadow=0;comic=0;labelBackgroundColor=none;strokeWidth=1;fontFamily=Verdana;fontSize=10;align=center;strokeColor=#666666;fontColor=#333333;" parent="1" vertex="1">
          <mxGeometry x="400" y="220" width="110" height="50" as="geometry" />
        </mxCell>
        <mxCell id="a-3xQabaQIuShYP5bTJc-50" style="edgeStyle=none;rounded=0;orthogonalLoop=1;jettySize=auto;html=1;endArrow=none;endFill=0;endSize=10;startArrow=diamond;startFill=1;startSize=10;entryX=0;entryY=0.25;entryDx=0;entryDy=0;exitX=1;exitY=0.25;exitDx=0;exitDy=0;" parent="1" source="a-3xQabaQIuShYP5bTJc-46" target="a-3xQabaQIuShYP5bTJc-49" edge="1">
          <mxGeometry relative="1" as="geometry">
            <mxPoint x="338.5" y="321" as="sourcePoint" />
            <mxPoint x="378.5" y="353" as="targetPoint" />
          </mxGeometry>
        </mxCell>
        <mxCell id="a-3xQabaQIuShYP5bTJc-56" value="&lt;font style=&quot;font-size: 12px&quot;&gt;&lt;b&gt;Actor&lt;/b&gt;&lt;/font&gt;" style="swimlane;html=1;fontStyle=0;childLayout=stackLayout;horizontal=1;startSize=26;fillColor=#f5f5f5;horizontalStack=0;resizeParent=1;resizeLast=0;collapsible=1;marginBottom=0;swimlaneFillColor=#ffffff;rounded=0;shadow=0;comic=0;labelBackgroundColor=none;strokeWidth=1;fontFamily=Verdana;fontSize=10;align=center;strokeColor=#666666;fontColor=#333333;" parent="1" vertex="1">
          <mxGeometry x="531" y="220" width="110" height="50" as="geometry" />
        </mxCell>
        <mxCell id="a-3xQabaQIuShYP5bTJc-59" value="&lt;font style=&quot;font-size: 12px&quot;&gt;&lt;b&gt;Artifact&lt;/b&gt;&lt;/font&gt;" style="swimlane;html=1;fontStyle=0;childLayout=stackLayout;horizontal=1;startSize=26;fillColor=#f5f5f5;horizontalStack=0;resizeParent=1;resizeLast=0;collapsible=1;marginBottom=0;swimlaneFillColor=#ffffff;rounded=0;shadow=0;comic=0;labelBackgroundColor=none;strokeWidth=1;fontFamily=Verdana;fontSize=10;align=center;strokeColor=#666666;fontColor=#333333;" parent="1" vertex="1">
          <mxGeometry x="659.75" y="220" width="115" height="50" as="geometry" />
        </mxCell>
        <mxCell id="a-3xQabaQIuShYP5bTJc-64" value="" style="endArrow=block;endSize=12;endFill=0;html=1;rounded=0;exitX=0.5;exitY=0;exitDx=0;exitDy=0;" parent="1" source="a-3xQabaQIuShYP5bTJc-46" target="a-3xQabaQIuShYP5bTJc-1" edge="1">
          <mxGeometry width="160" relative="1" as="geometry">
            <mxPoint x="443.5" y="379" as="sourcePoint" />
            <mxPoint x="438.5" y="181" as="targetPoint" />
            <Array as="points">
              <mxPoint x="314" y="210" />
              <mxPoint x="389" y="210" />
            </Array>
          </mxGeometry>
        </mxCell>
        <mxCell id="a-3xQabaQIuShYP5bTJc-65" value="" style="endArrow=block;endSize=12;endFill=0;html=1;rounded=0;" parent="1" source="a-3xQabaQIuShYP5bTJc-49" target="a-3xQabaQIuShYP5bTJc-1" edge="1">
          <mxGeometry width="160" relative="1" as="geometry">
            <mxPoint x="438.5" y="322" as="sourcePoint" />
            <mxPoint x="528.828947368421" y="241" as="targetPoint" />
            <Array as="points">
              <mxPoint x="455" y="210" />
              <mxPoint x="389" y="210" />
            </Array>
          </mxGeometry>
        </mxCell>
        <mxCell id="a-3xQabaQIuShYP5bTJc-66" value="" style="endArrow=block;endSize=12;endFill=0;html=1;rounded=0;" parent="1" source="a-3xQabaQIuShYP5bTJc-56" target="a-3xQabaQIuShYP5bTJc-2" edge="1">
          <mxGeometry width="160" relative="1" as="geometry">
            <mxPoint x="445.2925311203319" y="381" as="sourcePoint" />
            <mxPoint x="443.7074688796681" y="190" as="targetPoint" />
          </mxGeometry>
        </mxCell>
        <mxCell id="a-3xQabaQIuShYP5bTJc-67" value="" style="endArrow=block;endSize=12;endFill=0;html=1;rounded=0;" parent="1" source="a-3xQabaQIuShYP5bTJc-59" target="a-3xQabaQIuShYP5bTJc-2" edge="1">
          <mxGeometry width="160" relative="1" as="geometry">
            <mxPoint x="455.2925311203319" y="391" as="sourcePoint" />
            <mxPoint x="453.7074688796681" y="200" as="targetPoint" />
          </mxGeometry>
        </mxCell>
        <mxCell id="a-3xQabaQIuShYP5bTJc-35" style="edgeStyle=none;rounded=0;orthogonalLoop=1;jettySize=auto;html=1;endArrow=none;endFill=0;endSize=10;startArrow=diamond;startFill=1;startSize=10;entryX=0;entryY=0.25;entryDx=0;entryDy=0;exitX=1;exitY=0.25;exitDx=0;exitDy=0;" parent="1" source="a-3xQabaQIuShYP5bTJc-27" target="a-3xQabaQIuShYP5bTJc-30" edge="1">
          <mxGeometry relative="1" as="geometry">
            <mxPoint x="-212" y="350" as="sourcePoint" />
            <mxPoint x="-152" y="419.53" as="targetPoint" />
          </mxGeometry>
        </mxCell>
        <mxCell id="yhg7PZUZ458GV-zq5LN9-1" value="&lt;b&gt;&lt;font style=&quot;font-size: 12px&quot;&gt;Acme Metamodel&lt;/font&gt;&lt;/b&gt;" style="shape=umlFrame;whiteSpace=wrap;html=1;rounded=0;shadow=0;comic=0;labelBackgroundColor=none;strokeWidth=1;fontFamily=Verdana;fontSize=10;align=center;width=80;height=60;" parent="1" vertex="1">
          <mxGeometry x="-490" y="330" width="1290" height="200" as="geometry" />
        </mxCell>
        <mxCell id="yhg7PZUZ458GV-zq5LN9-2" value="" style="endArrow=block;endSize=12;endFill=0;html=1;rounded=0;entryX=0.512;entryY=0.999;entryDx=0;entryDy=0;entryPerimeter=0;exitX=0.512;exitY=-0.002;exitDx=0;exitDy=0;exitPerimeter=0;" parent="1" source="yhg7PZUZ458GV-zq5LN9-1" target="17acba5748e5396b-1" edge="1">
          <mxGeometry width="160" relative="1" as="geometry">
            <mxPoint x="59.5" y="330" as="sourcePoint" />
            <mxPoint x="59.5" y="290" as="targetPoint" />
          </mxGeometry>
        </mxCell>
        <mxCell id="yhg7PZUZ458GV-zq5LN9-3" value="&lt;b&gt;&lt;font style=&quot;font-size: 12px&quot;&gt;Developer&lt;/font&gt;&lt;/b&gt;" style="swimlane;html=1;fontStyle=0;childLayout=stackLayout;horizontal=1;startSize=26;fillColor=#f5f5f5;horizontalStack=0;resizeParent=1;resizeLast=0;collapsible=1;marginBottom=0;swimlaneFillColor=#ffffff;rounded=0;shadow=0;comic=0;labelBackgroundColor=none;strokeWidth=1;fontFamily=Verdana;fontSize=10;align=center;strokeColor=#666666;fontColor=#333333;" parent="1" vertex="1">
          <mxGeometry x="-368.5" y="378" width="87.5" height="50" as="geometry">
            <mxRectangle x="154" y="368" width="90" height="26" as="alternateBounds" />
          </mxGeometry>
        </mxCell>
        <mxCell id="yhg7PZUZ458GV-zq5LN9-5" value="&lt;b&gt;&lt;font style=&quot;font-size: 12px&quot;&gt;SEActifactType&lt;/font&gt;&lt;/b&gt;" style="swimlane;html=1;fontStyle=0;childLayout=stackLayout;horizontal=1;startSize=26;fillColor=#f5f5f5;horizontalStack=0;resizeParent=1;resizeLast=0;collapsible=1;marginBottom=0;swimlaneFillColor=#ffffff;rounded=0;shadow=0;comic=0;labelBackgroundColor=none;strokeWidth=1;fontFamily=Verdana;fontSize=10;align=center;strokeColor=#666666;fontColor=#333333;" parent="1" vertex="1">
          <mxGeometry x="29" y="380" width="126" height="50" as="geometry">
            <mxRectangle x="154" y="368" width="90" height="26" as="alternateBounds" />
          </mxGeometry>
        </mxCell>
        <mxCell id="yhg7PZUZ458GV-zq5LN9-7" value="&lt;b&gt;&lt;font style=&quot;font-size: 12px&quot;&gt;CodeActifactType&lt;/font&gt;&lt;/b&gt;" style="swimlane;html=1;fontStyle=0;childLayout=stackLayout;horizontal=1;startSize=26;fillColor=#f5f5f5;horizontalStack=0;resizeParent=1;resizeLast=0;collapsible=1;marginBottom=0;swimlaneFillColor=#ffffff;rounded=0;shadow=0;comic=0;labelBackgroundColor=none;strokeWidth=1;fontFamily=Verdana;fontSize=10;align=center;strokeColor=#666666;fontColor=#333333;" parent="1" vertex="1">
          <mxGeometry x="155" y="461" width="140" height="50" as="geometry">
            <mxRectangle x="154" y="368" width="90" height="26" as="alternateBounds" />
          </mxGeometry>
        </mxCell>
        <mxCell id="yhg7PZUZ458GV-zq5LN9-8" value="&lt;b&gt;&lt;font style=&quot;font-size: 12px&quot;&gt;SETaskType&lt;/font&gt;&lt;/b&gt;" style="swimlane;html=1;fontStyle=0;childLayout=stackLayout;horizontal=1;startSize=26;fillColor=#f5f5f5;horizontalStack=0;resizeParent=1;resizeLast=0;collapsible=1;marginBottom=0;swimlaneFillColor=#ffffff;rounded=0;shadow=0;comic=0;labelBackgroundColor=none;strokeWidth=1;fontFamily=Verdana;fontSize=10;align=center;strokeColor=#666666;fontColor=#333333;" parent="1" vertex="1">
          <mxGeometry x="-133.75" y="378" width="126" height="50" as="geometry">
            <mxRectangle x="154" y="368" width="90" height="26" as="alternateBounds" />
          </mxGeometry>
        </mxCell>
        <mxCell id="yhg7PZUZ458GV-zq5LN9-9" value="&lt;b&gt;&lt;font style=&quot;font-size: 12px&quot;&gt;CodingTaskType&lt;/font&gt;&lt;/b&gt;" style="swimlane;html=1;fontStyle=0;childLayout=stackLayout;horizontal=1;startSize=26;fillColor=#f5f5f5;horizontalStack=0;resizeParent=1;resizeLast=0;collapsible=1;marginBottom=0;swimlaneFillColor=#ffffff;rounded=0;shadow=0;comic=0;labelBackgroundColor=none;strokeWidth=1;fontFamily=Verdana;fontSize=10;align=center;strokeColor=#666666;fontColor=#333333;" parent="1" vertex="1">
          <mxGeometry x="-81" y="460" width="126" height="50" as="geometry">
            <mxRectangle x="154" y="368" width="90" height="26" as="alternateBounds" />
          </mxGeometry>
        </mxCell>
        <mxCell id="yhg7PZUZ458GV-zq5LN9-10" value="&lt;b&gt;&lt;font style=&quot;font-size: 12px&quot;&gt;Coding&lt;/font&gt;&lt;/b&gt;" style="swimlane;html=1;fontStyle=0;childLayout=stackLayout;horizontal=1;startSize=26;fillColor=#f5f5f5;horizontalStack=0;resizeParent=1;resizeLast=0;collapsible=1;marginBottom=0;swimlaneFillColor=#ffffff;rounded=0;shadow=0;comic=0;labelBackgroundColor=none;strokeWidth=1;fontFamily=Verdana;fontSize=10;align=center;strokeColor=#666666;fontColor=#333333;" parent="1" vertex="1">
          <mxGeometry x="450" y="380" width="126" height="50" as="geometry">
            <mxRectangle x="154" y="368" width="90" height="26" as="alternateBounds" />
          </mxGeometry>
        </mxCell>
        <mxCell id="yhg7PZUZ458GV-zq5LN9-11" value="&lt;b&gt;&lt;font style=&quot;font-size: 12px&quot;&gt;SEActifact&lt;/font&gt;&lt;/b&gt;" style="swimlane;html=1;fontStyle=0;childLayout=stackLayout;horizontal=1;startSize=26;fillColor=#f5f5f5;horizontalStack=0;resizeParent=1;resizeLast=0;collapsible=1;marginBottom=0;swimlaneFillColor=#ffffff;rounded=0;shadow=0;comic=0;labelBackgroundColor=none;strokeWidth=1;fontFamily=Verdana;fontSize=10;align=center;strokeColor=#666666;fontColor=#333333;" parent="1" vertex="1">
          <mxGeometry x="654.25" y="379" width="126" height="50" as="geometry">
            <mxRectangle x="154" y="368" width="90" height="26" as="alternateBounds" />
          </mxGeometry>
        </mxCell>
        <mxCell id="yhg7PZUZ458GV-zq5LN9-12" value="&lt;b&gt;&lt;font style=&quot;font-size: 12px&quot;&gt;Code&lt;/font&gt;&lt;/b&gt;" style="swimlane;html=1;fontStyle=0;childLayout=stackLayout;horizontal=1;startSize=26;fillColor=#f5f5f5;horizontalStack=0;resizeParent=1;resizeLast=0;collapsible=1;marginBottom=0;swimlaneFillColor=#ffffff;rounded=0;shadow=0;comic=0;labelBackgroundColor=none;strokeWidth=1;fontFamily=Verdana;fontSize=10;align=center;strokeColor=#666666;fontColor=#333333;" parent="1" vertex="1">
          <mxGeometry x="654.25" y="460" width="126" height="52" as="geometry">
            <mxRectangle x="154" y="368" width="90" height="26" as="alternateBounds" />
          </mxGeometry>
        </mxCell>
        <mxCell id="yhg7PZUZ458GV-zq5LN9-13" value="&lt;b&gt;&lt;font style=&quot;font-size: 12px&quot;&gt;ProgrammingLanguage&lt;/font&gt;&lt;/b&gt;" style="swimlane;html=1;fontStyle=0;childLayout=stackLayout;horizontal=1;startSize=26;fillColor=#f5f5f5;horizontalStack=0;resizeParent=1;resizeLast=0;collapsible=1;marginBottom=0;swimlaneFillColor=#ffffff;rounded=0;shadow=0;comic=0;labelBackgroundColor=none;strokeWidth=1;fontFamily=Verdana;fontSize=10;align=center;strokeColor=#666666;fontColor=#333333;" parent="1" vertex="1">
          <mxGeometry x="190" y="380" width="170" height="50" as="geometry">
            <mxRectangle x="154" y="368" width="90" height="26" as="alternateBounds" />
          </mxGeometry>
        </mxCell>
        <mxCell id="yhg7PZUZ458GV-zq5LN9-14" value="" style="endArrow=block;endSize=12;endFill=0;html=1;rounded=0;entryX=0.5;entryY=1;entryDx=0;entryDy=0;" parent="1" source="yhg7PZUZ458GV-zq5LN9-9" target="yhg7PZUZ458GV-zq5LN9-8" edge="1">
          <mxGeometry width="160" relative="1" as="geometry">
            <mxPoint x="286.5" y="340" as="sourcePoint" />
            <mxPoint x="286.5" y="290" as="targetPoint" />
          </mxGeometry>
        </mxCell>
        <mxCell id="yhg7PZUZ458GV-zq5LN9-15" value="" style="endArrow=block;endSize=12;endFill=0;html=1;rounded=0;entryX=0.5;entryY=1;entryDx=0;entryDy=0;" parent="1" source="yhg7PZUZ458GV-zq5LN9-7" target="yhg7PZUZ458GV-zq5LN9-5" edge="1">
          <mxGeometry width="160" relative="1" as="geometry">
            <mxPoint x="-84.5" y="510" as="sourcePoint" />
            <mxPoint x="-84.5" y="470" as="targetPoint" />
          </mxGeometry>
        </mxCell>
        <mxCell id="yhg7PZUZ458GV-zq5LN9-16" value="" style="endArrow=block;endSize=12;endFill=0;html=1;rounded=0;entryX=0.5;entryY=1;entryDx=0;entryDy=0;" parent="1" source="yhg7PZUZ458GV-zq5LN9-12" target="yhg7PZUZ458GV-zq5LN9-11" edge="1">
          <mxGeometry width="160" relative="1" as="geometry">
            <mxPoint x="-37" y="520" as="sourcePoint" />
            <mxPoint x="-37" y="480" as="targetPoint" />
          </mxGeometry>
        </mxCell>
        <mxCell id="yhg7PZUZ458GV-zq5LN9-17" value="" style="endArrow=block;endSize=12;endFill=0;html=1;rounded=0;entryX=0.5;entryY=1;entryDx=0;entryDy=0;" parent="1" source="yhg7PZUZ458GV-zq5LN9-5" target="a-3xQabaQIuShYP5bTJc-38" edge="1">
          <mxGeometry width="160" relative="1" as="geometry">
            <mxPoint x="-110" y="530" as="sourcePoint" />
            <mxPoint x="-110" y="490" as="targetPoint" />
          </mxGeometry>
        </mxCell>
        <mxCell id="yhg7PZUZ458GV-zq5LN9-18" value="" style="endArrow=block;endSize=12;endFill=0;html=1;rounded=0;exitX=0.5;exitY=0;exitDx=0;exitDy=0;" parent="1" source="yhg7PZUZ458GV-zq5LN9-10" target="a-3xQabaQIuShYP5bTJc-49" edge="1">
          <mxGeometry width="160" relative="1" as="geometry">
            <mxPoint x="321.07211538461524" y="420" as="sourcePoint" />
            <mxPoint x="227.75" y="185" as="targetPoint" />
          </mxGeometry>
        </mxCell>
        <mxCell id="yhg7PZUZ458GV-zq5LN9-19" value="" style="endArrow=block;endSize=12;endFill=0;html=1;rounded=0;entryX=0.5;entryY=1;entryDx=0;entryDy=0;exitX=0.5;exitY=0;exitDx=0;exitDy=0;" parent="1" source="yhg7PZUZ458GV-zq5LN9-11" target="a-3xQabaQIuShYP5bTJc-59" edge="1">
          <mxGeometry width="160" relative="1" as="geometry">
            <mxPoint x="521" y="510" as="sourcePoint" />
            <mxPoint x="386.98" y="-53.99200000000019" as="targetPoint" />
          </mxGeometry>
        </mxCell>
        <mxCell id="yhg7PZUZ458GV-zq5LN9-20" value="" style="endArrow=block;endSize=12;endFill=0;html=1;rounded=0;entryX=0.5;entryY=1;entryDx=0;entryDy=0;" parent="1" source="yhg7PZUZ458GV-zq5LN9-8" target="a-3xQabaQIuShYP5bTJc-30" edge="1">
          <mxGeometry width="160" relative="1" as="geometry">
            <mxPoint x="367.57211538461524" y="420" as="sourcePoint" />
            <mxPoint x="274.25" y="185" as="targetPoint" />
          </mxGeometry>
        </mxCell>
        <mxCell id="yhg7PZUZ458GV-zq5LN9-22" value="" style="endArrow=block;endSize=12;endFill=0;html=1;rounded=0;entryX=0.5;entryY=1;entryDx=0;entryDy=0;exitX=0.5;exitY=0;exitDx=0;exitDy=0;" parent="1" source="yhg7PZUZ458GV-zq5LN9-3" target="a-3xQabaQIuShYP5bTJc-37" edge="1">
          <mxGeometry width="160" relative="1" as="geometry">
            <mxPoint x="-484.72685185185173" y="391" as="sourcePoint" />
            <mxPoint x="-484.625" y="281" as="targetPoint" />
          </mxGeometry>
        </mxCell>
        <mxCell id="yhg7PZUZ458GV-zq5LN9-24" value="&lt;b&gt;Software Engineering Process&lt;/b&gt;" style="rounded=1;whiteSpace=wrap;html=1;align=center;verticalAlign=bottom;" parent="1" vertex="1">
          <mxGeometry x="-281" y="575" width="310" height="130" as="geometry" />
        </mxCell>
        <mxCell id="yhg7PZUZ458GV-zq5LN9-25" value="Requirement analysis" style="rounded=1;whiteSpace=wrap;html=1;align=center;" parent="1" vertex="1">
          <mxGeometry x="-201.25" y="635" width="127" height="30" as="geometry" />
        </mxCell>
        <mxCell id="yhg7PZUZ458GV-zq5LN9-26" value="Testing" style="rounded=1;whiteSpace=wrap;html=1;align=center;" parent="1" vertex="1">
          <mxGeometry x="-117.25" y="595" width="60" height="30" as="geometry" />
        </mxCell>
        <mxCell id="yhg7PZUZ458GV-zq5LN9-33" style="rounded=0;orthogonalLoop=1;jettySize=auto;html=1;dashed=1;endArrow=open;endFill=0;entryX=0.5;entryY=1;entryDx=0;entryDy=0;" parent="1" source="yhg7PZUZ458GV-zq5LN9-30" edge="1" target="yhg7PZUZ458GV-zq5LN9-9">
          <mxGeometry relative="1" as="geometry">
            <mxPoint x="99" y="510" as="targetPoint" />
          </mxGeometry>
        </mxCell>
        <mxCell id="yhg7PZUZ458GV-zq5LN9-30" value="Coding" style="rounded=1;whiteSpace=wrap;html=1;align=center;" parent="1" vertex="1">
          <mxGeometry x="-57.25" y="635" width="59.5" height="30" as="geometry" />
        </mxCell>
        <mxCell id="yhg7PZUZ458GV-zq5LN9-34" style="rounded=0;orthogonalLoop=1;jettySize=auto;html=1;dashed=1;endArrow=open;endFill=0;entryX=0.25;entryY=1;entryDx=0;entryDy=0;" parent="1" source="yhg7PZUZ458GV-zq5LN9-25" target="yhg7PZUZ458GV-zq5LN9-8" edge="1">
          <mxGeometry relative="1" as="geometry">
            <mxPoint x="109" y="520" as="targetPoint" />
            <mxPoint x="172" y="610" as="sourcePoint" />
          </mxGeometry>
        </mxCell>
        <mxCell id="yhg7PZUZ458GV-zq5LN9-35" style="rounded=0;orthogonalLoop=1;jettySize=auto;html=1;dashed=1;endArrow=open;endFill=0;" parent="1" source="yhg7PZUZ458GV-zq5LN9-26" edge="1">
          <mxGeometry relative="1" as="geometry">
            <mxPoint x="-91" y="428" as="targetPoint" />
            <mxPoint x="-101.125" y="610" as="sourcePoint" />
          </mxGeometry>
        </mxCell>
        <mxCell id="yhg7PZUZ458GV-zq5LN9-39" value="Requirement specifications" style="rounded=1;whiteSpace=wrap;html=1;align=center;" parent="1" vertex="1">
          <mxGeometry x="95" y="655" width="160" height="30" as="geometry" />
        </mxCell>
        <mxCell id="yhg7PZUZ458GV-zq5LN9-40" value="Test cases" style="rounded=1;whiteSpace=wrap;html=1;align=center;" parent="1" vertex="1">
          <mxGeometry x="43.75" y="575" width="80" height="30" as="geometry" />
        </mxCell>
        <mxCell id="yhg7PZUZ458GV-zq5LN9-41" value="Code" style="rounded=1;whiteSpace=wrap;html=1;align=center;" parent="1" vertex="1">
          <mxGeometry x="206.75" y="585" width="65.75" height="30" as="geometry" />
        </mxCell>
        <mxCell id="yhg7PZUZ458GV-zq5LN9-42" value="Test report" style="rounded=1;whiteSpace=wrap;html=1;align=center;" parent="1" vertex="1">
          <mxGeometry x="87" y="615" width="80" height="30" as="geometry" />
        </mxCell>
        <mxCell id="g2LY1XMopfXSmblv1A1d-1" value="Analyst" style="rounded=1;whiteSpace=wrap;html=1;align=center;" vertex="1" parent="1">
          <mxGeometry x="-410" y="615" width="60" height="30" as="geometry" />
        </mxCell>
        <mxCell id="g2LY1XMopfXSmblv1A1d-2" value="Tester" style="rounded=1;whiteSpace=wrap;html=1;align=center;" vertex="1" parent="1">
          <mxGeometry x="-434" y="575" width="51.5" height="30" as="geometry" />
        </mxCell>
        <mxCell id="g2LY1XMopfXSmblv1A1d-3" value="Developer" style="rounded=1;whiteSpace=wrap;html=1;align=center;" vertex="1" parent="1">
          <mxGeometry x="-359.75" y="655" width="70" height="30" as="geometry" />
        </mxCell>
        <mxCell id="g2LY1XMopfXSmblv1A1d-4" value="Bob Brown" style="rounded=1;whiteSpace=wrap;html=1;align=center;" vertex="1" parent="1">
          <mxGeometry x="600" y="615" width="70" height="30" as="geometry" />
        </mxCell>
        <mxCell id="g2LY1XMopfXSmblv1A1d-5" value="Ann Smith" style="rounded=1;whiteSpace=wrap;html=1;align=center;" vertex="1" parent="1">
          <mxGeometry x="560" y="575" width="70" height="30" as="geometry" />
        </mxCell>
        <mxCell id="g2LY1XMopfXSmblv1A1d-6" value="Design" style="rounded=1;whiteSpace=wrap;html=1;align=center;" vertex="1" parent="1">
          <mxGeometry x="-254.25" y="595" width="60" height="30" as="geometry" />
        </mxCell>
        <mxCell id="g2LY1XMopfXSmblv1A1d-7" style="rounded=0;orthogonalLoop=1;jettySize=auto;html=1;dashed=1;endArrow=open;endFill=0;exitX=0.5;exitY=0;exitDx=0;exitDy=0;" edge="1" parent="1" source="g2LY1XMopfXSmblv1A1d-6">
          <mxGeometry relative="1" as="geometry">
            <mxPoint x="-121" y="428" as="targetPoint" />
            <mxPoint x="-98.78033088235293" y="670" as="sourcePoint" />
          </mxGeometry>
        </mxCell>
        <mxCell id="g2LY1XMopfXSmblv1A1d-8" style="rounded=0;orthogonalLoop=1;jettySize=auto;html=1;dashed=1;endArrow=open;endFill=0;entryX=0.25;entryY=1;entryDx=0;entryDy=0;exitX=0.5;exitY=0;exitDx=0;exitDy=0;" edge="1" parent="1" source="g2LY1XMopfXSmblv1A1d-2" target="a-3xQabaQIuShYP5bTJc-37">
          <mxGeometry relative="1" as="geometry">
            <mxPoint x="-518.5" y="520" as="targetPoint" />
            <mxPoint x="-529.1818181818182" y="670" as="sourcePoint" />
          </mxGeometry>
        </mxCell>
        <mxCell id="g2LY1XMopfXSmblv1A1d-9" style="rounded=0;orthogonalLoop=1;jettySize=auto;html=1;dashed=1;endArrow=open;endFill=0;exitX=0.75;exitY=0;exitDx=0;exitDy=0;" edge="1" parent="1" source="g2LY1XMopfXSmblv1A1d-1">
          <mxGeometry relative="1" as="geometry">
            <mxPoint x="-390" y="270" as="targetPoint" />
            <mxPoint x="-519.1818181818182" y="680" as="sourcePoint" />
          </mxGeometry>
        </mxCell>
        <mxCell id="g2LY1XMopfXSmblv1A1d-10" style="rounded=0;orthogonalLoop=1;jettySize=auto;html=1;dashed=1;endArrow=open;endFill=0;entryX=0.5;entryY=1;entryDx=0;entryDy=0;exitX=0.5;exitY=0;exitDx=0;exitDy=0;" edge="1" parent="1" source="g2LY1XMopfXSmblv1A1d-3" target="yhg7PZUZ458GV-zq5LN9-3">
          <mxGeometry relative="1" as="geometry">
            <mxPoint x="-498.5" y="540" as="targetPoint" />
            <mxPoint x="-509.18181818181824" y="690" as="sourcePoint" />
          </mxGeometry>
        </mxCell>
        <mxCell id="g2LY1XMopfXSmblv1A1d-11" style="rounded=0;orthogonalLoop=1;jettySize=auto;html=1;dashed=1;endArrow=open;endFill=0;exitX=0.5;exitY=0;exitDx=0;exitDy=0;" edge="1" parent="1" source="yhg7PZUZ458GV-zq5LN9-40">
          <mxGeometry relative="1" as="geometry">
            <mxPoint x="95" y="430" as="targetPoint" />
            <mxPoint x="18.75" y="680" as="sourcePoint" />
          </mxGeometry>
        </mxCell>
        <mxCell id="g2LY1XMopfXSmblv1A1d-12" style="rounded=0;orthogonalLoop=1;jettySize=auto;html=1;dashed=1;endArrow=open;endFill=0;entryX=0.25;entryY=1;entryDx=0;entryDy=0;exitX=0.75;exitY=0;exitDx=0;exitDy=0;" edge="1" parent="1" source="yhg7PZUZ458GV-zq5LN9-42" target="yhg7PZUZ458GV-zq5LN9-5">
          <mxGeometry relative="1" as="geometry">
            <mxPoint x="28.75" y="449" as="targetPoint" />
            <mxPoint x="28.75" y="690" as="sourcePoint" />
          </mxGeometry>
        </mxCell>
        <mxCell id="g2LY1XMopfXSmblv1A1d-13" style="rounded=0;orthogonalLoop=1;jettySize=auto;html=1;dashed=1;endArrow=open;endFill=0;exitX=0.75;exitY=0;exitDx=0;exitDy=0;" edge="1" parent="1" source="yhg7PZUZ458GV-zq5LN9-39">
          <mxGeometry relative="1" as="geometry">
            <mxPoint x="125" y="430" as="targetPoint" />
            <mxPoint x="38.75" y="700" as="sourcePoint" />
          </mxGeometry>
        </mxCell>
        <mxCell id="g2LY1XMopfXSmblv1A1d-14" style="rounded=0;orthogonalLoop=1;jettySize=auto;html=1;dashed=1;endArrow=open;endFill=0;entryX=0.5;entryY=1;entryDx=0;entryDy=0;exitX=0.5;exitY=0;exitDx=0;exitDy=0;" edge="1" parent="1" source="yhg7PZUZ458GV-zq5LN9-41" target="yhg7PZUZ458GV-zq5LN9-7">
          <mxGeometry relative="1" as="geometry">
            <mxPoint x="48.75" y="469" as="targetPoint" />
            <mxPoint x="48.75" y="710" as="sourcePoint" />
          </mxGeometry>
        </mxCell>
        <mxCell id="g2LY1XMopfXSmblv1A1d-15" style="rounded=0;orthogonalLoop=1;jettySize=auto;html=1;dashed=1;endArrow=open;endFill=0;exitX=0.5;exitY=0;exitDx=0;exitDy=0;" edge="1" parent="1" source="g2LY1XMopfXSmblv1A1d-5">
          <mxGeometry relative="1" as="geometry">
            <mxPoint x="580" y="270" as="targetPoint" />
            <mxPoint x="303.125" y="600" as="sourcePoint" />
          </mxGeometry>
        </mxCell>
        <mxCell id="g2LY1XMopfXSmblv1A1d-16" style="rounded=0;orthogonalLoop=1;jettySize=auto;html=1;dashed=1;endArrow=open;endFill=0;exitX=0.75;exitY=0;exitDx=0;exitDy=0;" edge="1" parent="1" source="g2LY1XMopfXSmblv1A1d-4">
          <mxGeometry relative="1" as="geometry">
            <mxPoint x="600" y="270" as="targetPoint" />
            <mxPoint x="313.125" y="610" as="sourcePoint" />
          </mxGeometry>
        </mxCell>
        <mxCell id="g2LY1XMopfXSmblv1A1d-17" style="rounded=0;orthogonalLoop=1;jettySize=auto;html=1;dashed=1;endArrow=open;endFill=0;exitX=0.155;exitY=-0.007;exitDx=0;exitDy=0;exitPerimeter=0;entryX=0.75;entryY=1;entryDx=0;entryDy=0;" edge="1" parent="1" source="yhg7PZUZ458GV-zq5LN9-24" target="a-3xQabaQIuShYP5bTJc-27">
          <mxGeometry relative="1" as="geometry">
            <mxPoint x="-111" y="438" as="targetPoint" />
            <mxPoint x="-211" y="620" as="sourcePoint" />
          </mxGeometry>
        </mxCell>
        <mxCell id="g2LY1XMopfXSmblv1A1d-18" style="edgeStyle=none;rounded=0;orthogonalLoop=1;jettySize=auto;html=1;exitX=0.75;exitY=1;exitDx=0;exitDy=0;dashed=1;endArrow=open;endFill=0;" edge="1" parent="1" source="g2LY1XMopfXSmblv1A1d-5" target="g2LY1XMopfXSmblv1A1d-5">
          <mxGeometry relative="1" as="geometry" />
        </mxCell>
        <mxCell id="g2LY1XMopfXSmblv1A1d-19" value="&lt;b&gt;An enacted process&lt;/b&gt;" style="rounded=1;whiteSpace=wrap;html=1;align=center;verticalAlign=bottom;" vertex="1" parent="1">
          <mxGeometry x="206.75" y="710" width="313.25" height="120" as="geometry" />
        </mxCell>
        <mxCell id="g2LY1XMopfXSmblv1A1d-20" value="Requirement analysis task" style="rounded=1;whiteSpace=wrap;html=1;align=center;" vertex="1" parent="1">
          <mxGeometry x="259.25" y="770" width="150" height="30" as="geometry" />
        </mxCell>
        <mxCell id="g2LY1XMopfXSmblv1A1d-21" value="Testing task" style="rounded=1;whiteSpace=wrap;html=1;align=center;" vertex="1" parent="1">
          <mxGeometry x="366.25" y="730" width="73" height="30" as="geometry" />
        </mxCell>
        <mxCell id="g2LY1XMopfXSmblv1A1d-22" value="Coding task" style="rounded=1;whiteSpace=wrap;html=1;align=center;" vertex="1" parent="1">
          <mxGeometry x="426.25" y="770" width="73" height="30" as="geometry" />
        </mxCell>
        <mxCell id="g2LY1XMopfXSmblv1A1d-23" value="Design task" style="rounded=1;whiteSpace=wrap;html=1;align=center;" vertex="1" parent="1">
          <mxGeometry x="229.25" y="730" width="80" height="30" as="geometry" />
        </mxCell>
        <mxCell id="g2LY1XMopfXSmblv1A1d-24" style="rounded=0;orthogonalLoop=1;jettySize=auto;html=1;dashed=1;endArrow=open;endFill=0;exitX=0.5;exitY=0;exitDx=0;exitDy=0;" edge="1" parent="1" source="g2LY1XMopfXSmblv1A1d-23">
          <mxGeometry relative="1" as="geometry">
            <mxPoint x="410" y="270" as="targetPoint" />
            <mxPoint x="466.565" y="660" as="sourcePoint" />
          </mxGeometry>
        </mxCell>
        <mxCell id="g2LY1XMopfXSmblv1A1d-25" style="rounded=0;orthogonalLoop=1;jettySize=auto;html=1;dashed=1;endArrow=open;endFill=0;exitX=0.5;exitY=0;exitDx=0;exitDy=0;" edge="1" parent="1" source="g2LY1XMopfXSmblv1A1d-20">
          <mxGeometry relative="1" as="geometry">
            <mxPoint x="420" y="270" as="targetPoint" />
            <mxPoint x="476.56500000000005" y="670" as="sourcePoint" />
          </mxGeometry>
        </mxCell>
        <mxCell id="g2LY1XMopfXSmblv1A1d-26" style="rounded=0;orthogonalLoop=1;jettySize=auto;html=1;dashed=1;endArrow=open;endFill=0;entryX=0.25;entryY=1;entryDx=0;entryDy=0;exitX=0.5;exitY=0;exitDx=0;exitDy=0;" edge="1" parent="1" source="g2LY1XMopfXSmblv1A1d-21" target="a-3xQabaQIuShYP5bTJc-49">
          <mxGeometry relative="1" as="geometry">
            <mxPoint x="463.44000000000005" y="601" as="targetPoint" />
            <mxPoint x="486.56500000000005" y="680" as="sourcePoint" />
          </mxGeometry>
        </mxCell>
        <mxCell id="g2LY1XMopfXSmblv1A1d-27" style="rounded=0;orthogonalLoop=1;jettySize=auto;html=1;dashed=1;endArrow=open;endFill=0;entryX=0.5;entryY=1;entryDx=0;entryDy=0;exitX=0.5;exitY=0;exitDx=0;exitDy=0;" edge="1" parent="1" source="g2LY1XMopfXSmblv1A1d-22" target="yhg7PZUZ458GV-zq5LN9-10">
          <mxGeometry relative="1" as="geometry">
            <mxPoint x="473.44000000000005" y="611" as="targetPoint" />
            <mxPoint x="496.56500000000005" y="690" as="sourcePoint" />
          </mxGeometry>
        </mxCell>
        <mxCell id="g2LY1XMopfXSmblv1A1d-28" value="Requirement specifications artifact" style="rounded=1;whiteSpace=wrap;html=1;align=center;" vertex="1" parent="1">
          <mxGeometry x="592.75" y="800" width="160" height="30" as="geometry" />
        </mxCell>
        <mxCell id="g2LY1XMopfXSmblv1A1d-29" value="Test cases artifact" style="rounded=1;whiteSpace=wrap;html=1;align=center;" vertex="1" parent="1">
          <mxGeometry x="541.5" y="720" width="80" height="30" as="geometry" />
        </mxCell>
        <mxCell id="g2LY1XMopfXSmblv1A1d-35" style="edgeStyle=none;rounded=0;orthogonalLoop=1;jettySize=auto;html=1;entryX=1;entryY=0.5;entryDx=0;entryDy=0;endArrow=open;endFill=0;" edge="1" parent="1" source="g2LY1XMopfXSmblv1A1d-30" target="yhg7PZUZ458GV-zq5LN9-41">
          <mxGeometry relative="1" as="geometry" />
        </mxCell>
        <mxCell id="g2LY1XMopfXSmblv1A1d-30" value="Code artifact" style="rounded=1;whiteSpace=wrap;html=1;align=center;" vertex="1" parent="1">
          <mxGeometry x="713" y="720" width="65.75" height="30" as="geometry" />
        </mxCell>
        <mxCell id="g2LY1XMopfXSmblv1A1d-31" value="Test report artifact" style="rounded=1;whiteSpace=wrap;html=1;align=center;" vertex="1" parent="1">
          <mxGeometry x="584.75" y="760" width="80" height="30" as="geometry" />
        </mxCell>
        <mxCell id="g2LY1XMopfXSmblv1A1d-34" value="&lt;font style=&quot;font-size: 12px&quot; face=&quot;Verdana&quot;&gt;&lt;b&gt;Acme model&lt;/b&gt;&lt;/font&gt;" style="text;html=1;align=center;verticalAlign=middle;resizable=0;points=[];autosize=1;strokeColor=none;" vertex="1" parent="1">
          <mxGeometry x="-475" y="820" width="100" height="20" as="geometry" />
        </mxCell>
        <mxCell id="g2LY1XMopfXSmblv1A1d-37" style="edgeStyle=orthogonalEdgeStyle;rounded=0;orthogonalLoop=1;jettySize=auto;html=1;entryX=0.5;entryY=1;entryDx=0;entryDy=0;endArrow=open;endFill=0;exitX=0;exitY=0.5;exitDx=0;exitDy=0;" edge="1" parent="1" source="g2LY1XMopfXSmblv1A1d-19" target="yhg7PZUZ458GV-zq5LN9-24">
          <mxGeometry relative="1" as="geometry">
            <mxPoint x="191.38" y="870" as="sourcePoint" />
            <mxPoint x="-246.37" y="740" as="targetPoint" />
          </mxGeometry>
        </mxCell>
        <mxCell id="g2LY1XMopfXSmblv1A1d-40" value="/type" style="text;html=1;align=center;verticalAlign=middle;resizable=0;points=[];autosize=1;strokeColor=none;" vertex="1" parent="1">
          <mxGeometry x="20" y="750" width="40" height="20" as="geometry" />
        </mxCell>
        <mxCell id="g2LY1XMopfXSmblv1A1d-44" value="/types" style="text;html=1;align=center;verticalAlign=middle;resizable=0;points=[];autosize=1;strokeColor=none;" vertex="1" parent="1">
          <mxGeometry x="616.5" y="680" width="50" height="20" as="geometry" />
        </mxCell>
      </root>
    </mxGraphModel>
  </diagram>
</mxfile>
